<?xml version="1.0" encoding="utf-8"?>
<!-- Generator: Adobe Illustrator 23.0.3, SVG Export Plug-In . SVG Version: 6.00 Build 0)  -->
<svg version="1.1" id="Camada_1" xmlns="http://www.w3.org/2000/svg" xmlns:xlink="http://www.w3.org/1999/xlink" x="0px" y="0px"
	 viewBox="0 0 248 216.6" style="enable-background:new 0 0 248 216.6;" xml:space="preserve">
<style type="text/css">
	.st0{fill:#B81E27;}
</style>
<title>LogoSimSave</title>
<g>
	<path class="st0" d="M64.4,83.7c2.7,0,3.8-0.9,4.8-3.4c6.8-18.3,13.7-36.6,20.5-55c1.3-3.6,3.5-6.2,7.6-6.4s6.8,1.8,8.5,6.7
		c7.1,19.9,14.2,39.8,21.3,59.7c4.3,12,8.6,24,13.1,36.6c1.1-1.5,1.9-2.6,2.7-3.7c6.7-10,13.4-20.1,20.1-30.2
		c1.9-2.8,4.2-4.5,7.8-4.5c14.4,0,56.9,0,76.8,0V21.1c0-11.6-9.4-21-21-21H21.4C9.8,0,0.4,9.4,0.4,21c0,0,0,0,0,0.1v62.5
		C18.6,83.5,53.9,83.5,64.4,83.7z"/>
	<path class="st0" d="M178.7,99.6c-2.5-0.3-4.8,1-6.1,3.2c-8.8,13.4-17.8,26.7-26.6,40.1c-2.2,3.3-4.6,5.8-8.9,5.3s-6.1-3.5-7.4-7.2
		c-10.2-28.8-20.5-57.6-30.9-86.4c-0.3-1-0.8-1.9-1.5-3.7l-15.4,41c-2.5,6.8-4.1,7.9-11.3,7.9c-12.7,0-49.9,0-70.4,0v53l0,0
		c0,11.6,9.4,21,21,21c0,0,0,0,0.1,0H53v32.5c0,5.8,4.7,10.5,10.6,10.5c2.8,0,5.5-1.1,7.4-3.1l39.8-39.8h115.8c11.6,0,21-9.4,21-21
		v-53C230.7,99.7,190.4,99.7,178.7,99.6z"/>
</g>
</svg>
